<svg xmlns="http://www.w3.org/2000/svg" width="129.896" height="38" viewBox="0 0 129.896 38">
  <g id="Logo" transform="translate(-288.691 -312.404)">
    <path id="Path_1" data-name="Path 1" d="M328.8,342.119v21.77H324.14v-21.77Z" transform="translate(-26.201 -22.363)" fill="#2f2f4f"/>
    <path id="Path_2" data-name="Path 2" d="M371.29,342.119v4.012h-6.282v17.758h-4.665V346.131h-6.282v-4.012Z" transform="translate(-48.317 -22.363)" fill="#2f2f4f"/>
    <path id="Path_3" data-name="Path 3" d="M465.459,383.337a7.858,7.858,0,0,1,3.88-.931,8.517,8.517,0,0,1,3.938.874,6.508,6.508,0,0,1,2.663,2.463,7.286,7.286,0,0,1,.988,3.738,7.393,7.393,0,0,1-.115,1.375H466.132v.115a4.007,4.007,0,0,0,1.031,2.52,3.231,3.231,0,0,0,2.434.916,3.689,3.689,0,0,0,2.048-.53,2.5,2.5,0,0,0,1.074-1.561H476.7a5.791,5.791,0,0,1-1.117,2.635,6.059,6.059,0,0,1-2.348,1.847,7.926,7.926,0,0,1-3.351.673,9.222,9.222,0,0,1-4.253-.917,6.453,6.453,0,0,1-2.749-2.621,7.948,7.948,0,0,1-.959-3.966,8.21,8.21,0,0,1,.931-4A6.532,6.532,0,0,1,465.459,383.337Zm6.329,2.807a3.5,3.5,0,0,0-2.277-.73,3.331,3.331,0,0,0-2.22.759,3.1,3.1,0,0,0-1.074,2.048h6.673A3.149,3.149,0,0,0,471.789,386.144Z" transform="translate(-129.196 -52.623)" fill="#2f2f4f"/>
    <path id="Path_4" data-name="Path 4" d="M522.78,383.065h4.611l3.064,4.353,3.122-4.353H537.9l-5.184,7.217,5.47,7.5h-4.611l-3.379-4.611-3.351,4.611h-4.325l5.47-7.5Z" transform="translate(-174.4 -53.132)" fill="#2f2f4f"/>
    <path id="Path_5" data-name="Path 5" d="M604.786,385.986a8.673,8.673,0,0,1,.874,3.981,8.5,8.5,0,0,1-.874,3.952,6.428,6.428,0,0,1-2.42,2.621,6.7,6.7,0,0,1-3.522.931,5.339,5.339,0,0,1-4.439-2.034v7.59h-4.038V382.578h3.523l.4,2.033a5.462,5.462,0,0,1,1.9-1.6,5.729,5.729,0,0,1,2.677-.6,6.622,6.622,0,0,1,3.508.931A6.419,6.419,0,0,1,604.786,385.986Zm-3.222,3.924a4.5,4.5,0,0,0-1-3.05,3.313,3.313,0,0,0-2.635-1.16,3.228,3.228,0,0,0-2.606,1.16,4.584,4.584,0,0,0-.974,3.05,4.689,4.689,0,0,0,.974,3.093,3.213,3.213,0,0,0,2.606,1.174,3.279,3.279,0,0,0,2.635-1.189A4.612,4.612,0,0,0,601.564,389.91Z" transform="translate(-224.994 -52.623)" fill="#2f2f4f"/>
    <path id="Path_6" data-name="Path 6" d="M661.089,383.337a7.858,7.858,0,0,1,3.881-.931,8.518,8.518,0,0,1,3.938.874,6.513,6.513,0,0,1,2.664,2.463,7.292,7.292,0,0,1,.988,3.738,7.41,7.41,0,0,1-.114,1.375H661.762v.115a4.013,4.013,0,0,0,1.031,2.52,3.231,3.231,0,0,0,2.435.916,3.69,3.69,0,0,0,2.048-.53,2.5,2.5,0,0,0,1.074-1.561h3.981a5.79,5.79,0,0,1-1.117,2.635,6.06,6.06,0,0,1-2.348,1.847,7.926,7.926,0,0,1-3.351.673,9.222,9.222,0,0,1-4.253-.917,6.455,6.455,0,0,1-2.749-2.621,7.951,7.951,0,0,1-.959-3.966,8.208,8.208,0,0,1,.931-4A6.532,6.532,0,0,1,661.089,383.337Zm6.329,2.807a3.5,3.5,0,0,0-2.277-.73,3.33,3.33,0,0,0-2.219.759,3.1,3.1,0,0,0-1.074,2.048h6.673A3.148,3.148,0,0,0,667.418,386.144Z" transform="translate(-275.097 -52.623)" fill="#2f2f4f"/>
    <path id="Path_7" data-name="Path 7" d="M734.689,386.731h-1.6a2.992,2.992,0,0,0-2.52,1.031,4.455,4.455,0,0,0-.8,2.806v7.218h-4.038V383.065h3.666l.372,2.205a4.576,4.576,0,0,1,1.633-1.647,5.23,5.23,0,0,1,2.606-.559h.688Z" transform="translate(-326.04 -53.132)" fill="#2f2f4f"/>
    <path id="Path_8" data-name="Path 8" d="M773.236,367.256v4.124h3.351v3.408h-3.351v6.444a1.579,1.579,0,0,0,.33,1.117,1.481,1.481,0,0,0,1.1.344h2.091V386.1h-3.351q-4.211,0-4.21-4.21V367.256Z" transform="translate(-358.172 -41.452)" fill="#2f2f4f"/>
    <path id="Path_9" data-name="Path 9" d="M328.044,317.873V312.4H288.691V348h39.956v-9.375a3.584,3.584,0,0,0,2.3-3.318,3.668,3.668,0,0,0-7.333,0,3.589,3.589,0,0,0,2.465,3.377V345.5H291.258V314.909h34.22v5.469h9.046v6.567h2.567v-9.071Zm-.762,16.006a1.432,1.432,0,1,1-1.467,1.431A1.451,1.451,0,0,1,327.282,333.879Z" transform="translate(0 0)" fill="#54e2b3"/>
  </g>
</svg>
